<svg xmlns="http://www.w3.org/2000/svg" width="100%" height="100%" version="1.1">
    <path d="M14,7 C14,10.8659505 10.8659505,14 7,14 C3.13404948,14 0,10.8659505 0,7 C0,3.13404948 3.13404948,0 7,0 C10.8659505,0 14,3.13404948 14,7 Z" id="Path" fill="#FFFFFF"/>
    <path d="M13.0918457,3.55343424 L13.0918457,3.55571288 C13.0027507,3.39803059 12.9098958,3.24308268 12.8090658,3.09348958 L12.2891927,5.30297851 L9.54991861,6.21603191 L7.24985351,4.37591146 L7.24985351,1.66557618 L9.87257486,0.616943367 L9.81936847,0.593587225 C9.76103514,0.568408196 9.70247396,0.543684896 9.6436849,0.519417325 C7.95566406,-0.168961596 6.06586913,-0.172037775 4.37568361,0.510986321 C4.30675455,0.539013679 4.23862305,0.567838542 4.17128906,0.597574863 L4.11409507,0.6234375 L6.75014649,1.66603191 L6.75014649,4.37591146 L4.45008139,6.21603191 L1.7114909,5.30320639 L1.19161785,3.09348958 C1.10081382,3.22815757 1.01661785,3.36749674 0.9349284,3.50865885 L0.9349284,3.50649413 C0.321516942,4.56788736 -0.00102538917,5.77226563 -2.43723108e-06,6.99817708 C-2.43723108e-06,7.21772462 0.0113932292,7.43442382 0.0315592375,7.64895833 L1.5827474,5.78662111 L4.29080403,6.68919271 L4.97861327,9.44065757 L3.64002278,11.2256348 L1.14889323,10.8322266 C1.19207357,10.8976237 1.23764649,10.961084 1.28264972,11.0247722 L1.27330729,11.0234049 C2.17268882,12.3027507 3.47379556,13.2448568 4.96995444,13.6999024 L4.96482747,13.690332 C5.15577799,13.7486654 5.34889323,13.801416 5.54633788,13.8432292 L4.05439452,11.5075033 L5.3755534,9.74611003 L8.62558594,9.74611003 L9.96588542,11.5161621 L8.66489257,13.7944661 C8.8314616,13.7535644 8.99518229,13.7050293 9.15719402,13.6526205 L9.15275066,13.6611654 C10.5982096,13.1926758 11.8524902,12.2674316 12.7266927,11.0245443 L12.7173503,11.0259115 C12.7623535,10.9622233 12.8079264,10.898763 12.8511068,10.8334798 L10.3717122,11.2233561 L9.02161458,9.44065757 L9.70919597,6.68987632 L12.4172526,5.78662111 L13.9685547,7.6481608 C13.9822266,7.49936524 13.9902018,7.34886069 13.9948731,7.19790038 C13.996696,7.1315918 13.9999976,7.06585285 13.9999976,6.99931639 C14.0012533,5.79140625 13.6882812,4.60388997 13.0918457,3.55343424 Z" id="Path" fill="#222222"/>
    <path d="M7,14 C3.13404948,14 0,10.8659505 0,7 C0,3.13404948 3.13404948,0 7,0 C10.8659505,0 14,3.13404948 14,7 C13.9956706,10.8641276 10.8641276,13.9956706 7,14 Z M7,0.466666667 C3.39176431,0.466666667 0.466666667,3.39176431 0.466666667,7 C0.466666667,10.6082357 3.39176431,13.5333333 7,13.5333333 C10.6082357,13.5333333 13.5333333,10.6082357 13.5333333,7 C13.5292318,3.3934733 10.6065267,0.470768229 7,0.466666667 Z" id="Shape" fill="#222222"/>
</svg>