<svg xmlns="http://www.w3.org/2000/svg" width="100%" height="100%" version="1.1" fill="#12E315">
    <g stroke-width="0.5">
        <g fill="#12E315" stroke="#12E315">
            <path d="M8.30560675,5.28839565 C8.30560675,5.28477898 8.30181786,5.27754565 8.30181786,5.27392898 C8.30181786,5.27031231 8.29802897,5.26307713 8.29802897,5.25946046 C8.29802897,5.25584379 8.29424008,5.24861046 8.29424008,5.24499379 C8.29424008,5.24137713 8.29044925,5.23414194 8.29044925,5.23052528 C8.28666036,5.22690861 8.28666036,5.22329194 8.28287147,5.21967528 C8.27908258,5.21605861 8.27908258,5.20882342 8.27529369,5.20520676 C8.27150481,5.20159009 8.27150481,5.19797342 8.26771592,5.19435676 C8.26392703,5.19074009 8.2601362,5.18350676 8.2601362,5.17988824 C8.25634731,5.17627157 8.25255842,5.17265491 8.25255842,5.16903824 L8.24119175,5.15818824 C8.23361398,5.15095305 8.22982315,5.14371972 8.22224537,5.14010305 L5.63055225,2.66621416 C5.50551116,2.54685676 5.30090146,2.54685676 5.17206371,2.66621416 C5.04702262,2.78557157 5.04702262,2.98088083 5.17206371,3.10386231 L7.20677271,5.04608453 L-1.06495569,5.04608453 C-1.24304511,5.04608453 -1.38704034,5.18352713 -1.38704034,5.35352898 C-1.38704034,5.52353083 -1.24305287,5.66097342 -1.06495569,5.66097342 L7.20677271,5.66097342 L5.17206371,7.60319565 C5.04702262,7.72255305 5.04702262,7.91786231 5.17206371,8.04084379 C5.2364787,8.10233083 5.31984008,8.13126602 5.39941645,8.13126602 C5.47898893,8.13126602 5.5661392,8.10233083 5.62676918,8.04084379 L8.2184623,5.56695491 C8.22604008,5.55972157 8.22983091,5.55610491 8.23740869,5.54887157 C8.24119757,5.54525305 8.24498646,5.54163639 8.24877535,5.53801972 C8.25256424,5.53440305 8.25635313,5.53078639 8.25635313,5.52716972 C8.26014396,5.52355305 8.26393285,5.51631787 8.26393285,5.5127012 C8.26772174,5.50908453 8.26772174,5.50546787 8.27151063,5.5018512 C8.27529951,5.49823453 8.27529951,5.4910012 8.2790884,5.48738268 C8.29045701,5.47291602 8.29045701,5.46568268 8.29045701,5.46206602 C8.29045701,5.4584475 8.2942459,5.45121416 8.2942459,5.4475975 C8.2942459,5.44398083 8.29803479,5.4367475 8.29803479,5.43313083 C8.29803479,5.42951231 8.30182368,5.42227898 8.30182368,5.41866231 C8.30182368,5.41142898 8.30561257,5.40781231 8.30561257,5.40057713 L8.30561257,5.38972713 C8.30940146,5.36802528 8.30940146,5.34994194 8.30561257,5.32824009 C8.30940146,5.31377342 8.30940146,5.31015491 8.30940146,5.30653824 C8.30940146,5.2992475 8.30940146,5.29562898 8.30560675,5.28839565 Z" id="Icons/ArrowUp" transform="translate(3.461181, 5.353981) scale(1, -1) rotate(-270.000000) translate(-3.461181, -5.353981) "/>
        </g>
        <g transform="translate(6.000000, 0.000000)" fill="#FF3D3D" stroke="#FF3D3D">
            <path d="M8.30560675,5.28839565 C8.30560675,5.28477898 8.30181786,5.27754565 8.30181786,5.27392898 C8.30181786,5.27031231 8.29802897,5.26307713 8.29802897,5.25946046 C8.29802897,5.25584379 8.29424008,5.24861046 8.29424008,5.24499379 C8.29424008,5.24137713 8.29044925,5.23414194 8.29044925,5.23052528 C8.28666036,5.22690861 8.28666036,5.22329194 8.28287147,5.21967528 C8.27908258,5.21605861 8.27908258,5.20882342 8.27529369,5.20520676 C8.27150481,5.20159009 8.27150481,5.19797342 8.26771592,5.19435676 C8.26392703,5.19074009 8.2601362,5.18350676 8.2601362,5.17988824 C8.25634731,5.17627157 8.25255842,5.17265491 8.25255842,5.16903824 L8.24119175,5.15818824 C8.23361398,5.15095305 8.22982315,5.14371972 8.22224537,5.14010305 L5.63055225,2.66621416 C5.50551116,2.54685676 5.30090146,2.54685676 5.17206371,2.66621416 C5.04702262,2.78557157 5.04702262,2.98088083 5.17206371,3.10386231 L7.20677271,5.04608453 L-1.06495569,5.04608453 C-1.24304511,5.04608453 -1.38704034,5.18352713 -1.38704034,5.35352898 C-1.38704034,5.52353083 -1.24305287,5.66097342 -1.06495569,5.66097342 L7.20677271,5.66097342 L5.17206371,7.60319565 C5.04702262,7.72255305 5.04702262,7.91786231 5.17206371,8.04084379 C5.2364787,8.10233083 5.31984008,8.13126602 5.39941645,8.13126602 C5.47898893,8.13126602 5.5661392,8.10233083 5.62676918,8.04084379 L8.2184623,5.56695491 C8.22604008,5.55972157 8.22983091,5.55610491 8.23740869,5.54887157 C8.24119757,5.54525305 8.24498646,5.54163639 8.24877535,5.53801972 C8.25256424,5.53440305 8.25635313,5.53078639 8.25635313,5.52716972 C8.26014396,5.52355305 8.26393285,5.51631787 8.26393285,5.5127012 C8.26772174,5.50908453 8.26772174,5.50546787 8.27151063,5.5018512 C8.27529951,5.49823453 8.27529951,5.4910012 8.2790884,5.48738268 C8.29045701,5.47291602 8.29045701,5.46568268 8.29045701,5.46206602 C8.29045701,5.4584475 8.2942459,5.45121416 8.2942459,5.4475975 C8.2942459,5.44398083 8.29803479,5.4367475 8.29803479,5.43313083 C8.29803479,5.42951231 8.30182368,5.42227898 8.30182368,5.41866231 C8.30182368,5.41142898 8.30561257,5.40781231 8.30561257,5.40057713 L8.30561257,5.38972713 C8.30940146,5.36802528 8.30940146,5.34994194 8.30561257,5.32824009 C8.30940146,5.31377342 8.30940146,5.31015491 8.30940146,5.30653824 C8.30940146,5.2992475 8.30940146,5.29562898 8.30560675,5.28839565 Z" id="Icons/ArrowDown" transform="translate(3.461181, 5.353981) rotate(-270.000000) translate(-3.461181, -5.353981) "/>
        </g>
    </g>
</svg>