<svg xmlns="http://www.w3.org/2000/svg" width="100%" height="100%" version="1.1" fill="#12E315">
    <path d="M8.82634207,5.14485366 L4.91987391,1.17537398 C4.80845165,1.06215447 4.65980061,1 4.49812391,1 C4.33961562,1 4.1910526,1.06215447 4.07963033,1.17537398 L0.173074159,5.14485366 C-0.0576913865,5.37943089 -0.0576913865,5.76121138 0.173074159,5.99560976 L0.527759571,6.35619512 C0.639181837,6.4693252 0.787832869,6.53156911 0.946429175,6.53156911 C1.10493747,6.53156911 1.25869316,6.4693252 1.37002741,6.35619512 L3.65409585,4.04029268 L3.65409585,11.3978618 C3.65409585,11.7294715 3.90968057,12 4.23602636,12 L4.73769059,12 C5.06403637,12 5.34549641,11.7294715 5.34549641,11.3978618 L5.34549641,4.01417886 L7.6425025,6.35619512 C7.75383676,6.4693252 7.89852728,6.53156911 8.05712359,6.53156911 C8.21571989,6.53156911 8.36217064,6.4693252 8.47368092,6.35619512 L8.8273102,5.99560976 C9.05816375,5.76112195 9.05728364,5.37943089 8.82634207,5.14485366 Z" id="Path"/>
</svg>